<?xml version="1.0" encoding="UTF-8" standalone="no"?>
<svg
   xmlns:dc="http://purl.org/dc/elements/1.1/"
   xmlns:cc="http://creativecommons.org/ns#"
   xmlns:rdf="http://www.w3.org/1999/02/22-rdf-syntax-ns#"
   xmlns:svg="http://www.w3.org/2000/svg"
   xmlns="http://www.w3.org/2000/svg"
   xmlns:sodipodi="http://sodipodi.sourceforge.net/DTD/sodipodi-0.dtd"
   xmlns:inkscape="http://www.inkscape.org/namespaces/inkscape"
   version="1.1"
   id="Capa_1"
   x="0px"
   y="0px"
   viewBox="0 0 395 395"
   style="enable-background:new 0 0 395 395;"
   xml:space="preserve"
   sodipodi:docname="lateral.svg"
   inkscape:version="1.0.2 (e86c8708, 2021-01-15)"
   inkscape:export-filename="/Users/nickmazany-wright/Desktop/Development projects/barrier_type_test/data/lateral.png"
   inkscape:export-xdpi="96"
   inkscape:export-ydpi="96"><metadata
   id="metadata3502"><rdf:RDF><cc:Work
       rdf:about=""><dc:format>image/svg+xml</dc:format><dc:type
         rdf:resource="http://purl.org/dc/dcmitype/StillImage" /><dc:title></dc:title></cc:Work></rdf:RDF></metadata><defs
   id="defs3500">
	
	
	
	
	
	
	
	
</defs><sodipodi:namedview
   pagecolor="#ffffff"
   bordercolor="#666666"
   borderopacity="1"
   objecttolerance="10"
   gridtolerance="10"
   guidetolerance="10"
   inkscape:pageopacity="0"
   inkscape:pageshadow="2"
   inkscape:window-width="1215"
   inkscape:window-height="740"
   id="namedview3498"
   showgrid="false"
   inkscape:zoom="1.1662912"
   inkscape:cx="214.64838"
   inkscape:cy="197.5"
   inkscape:window-x="0"
   inkscape:window-y="25"
   inkscape:window-maximized="0"
   inkscape:current-layer="Capa_1" />
<path
   d="M 313.001,0 H 81.999 C 36.785,0 0,36.784 0,81.998 V 312.991 C 0,358.211 36.785,395 81.999,395 H 313.001 C 358.216,395 395,358.211 395,312.991 V 81.998 C 395,36.784 358.216,0 313.001,0 Z M 380,312.991 C 380,349.94 349.945,380 313.001,380 H 81.999 C 45.056,380 15,349.94 15,312.991 V 81.998 C 15,45.056 45.056,15 81.999,15 H 313.001 C 349.945,15 380,45.056 380,81.998 Z"
   id="path3449" />
<g
   id="g3467">
</g>
<g
   id="g3469">
</g>
<g
   id="g3471">
</g>
<g
   id="g3473">
</g>
<g
   id="g3475">
</g>
<g
   id="g3477">
</g>
<g
   id="g3479">
</g>
<g
   id="g3481">
</g>
<g
   id="g3483">
</g>
<g
   id="g3485">
</g>
<g
   id="g3487">
</g>
<g
   id="g3489">
</g>
<g
   id="g3491">
</g>
<g
   id="g3493">
</g>
<g
   id="g3495">
</g>
<g
   id="g5568"
   transform="matrix(1.8419337,0,0,1.8419337,-8.077492,-26.423636)"><path
     d="m 102.03657,98.80169 c 1.35422,0 1.84842,0.22839 2.93143,0.72931 1.47134,0.68076 3.48701,1.61276 7.19638,1.61276 3.71,0 5.72566,-0.932 7.19763,-1.61276 1.083,-0.50092 1.57721,-0.72931 2.93204,-0.72931 1.35549,0 1.85031,0.22839 2.9333,0.72971 1.47199,0.68036 3.48765,1.61276 7.19765,1.61276 3.71063,0 5.72691,-0.932 7.19889,-1.61276 1.083,-0.50092 1.57783,-0.72931 2.93267,-0.72931 v -4.67087 c -3.70999,0 -5.72629,0.932 -7.19826,1.61276 -1.08362,0.50132 -1.57784,0.72971 -2.9333,0.72971 -1.35484,0 -1.84906,-0.22837 -2.93205,-0.72931 -1.47197,-0.68076 -3.48764,-1.61276 -7.1989,-1.61276 -3.70999,0 -5.72628,0.932 -7.19763,1.61276 -1.08299,0.50092 -1.5772,0.72931 -2.93204,0.72931 -1.35359,0 -1.84779,-0.22837 -2.93017,-0.72931 -1.47197,-0.68034 -3.48701,-1.61276 -7.19764,-1.61276 -3.710002,0 -5.725666,0.932 -7.197013,1.61276 -1.083,0.50092 -1.577204,0.72931 -2.932047,0.72931 -1.354842,0 -1.84905,-0.22837 -2.932046,-0.72931 -1.471972,-0.68076 -3.487012,-1.61276 -7.19701,-1.61276 v 4.67088 c 1.354214,0 1.84842,0.22839 2.931418,0.7293 1.471972,0.68076 3.487636,1.61276 7.197638,1.61276 3.709997,0 5.72629,-0.932 7.197638,-1.61276 1.083622,-0.50172 1.577202,-0.73011 2.931422,-0.73011 z"
     id="path113-8"
     style="stroke-width:0.501409" /><g
     id="g5474"><path
       style="fill:none;stroke:#000000;stroke-width:3;stroke-linecap:butt;stroke-linejoin:miter;stroke-miterlimit:4;stroke-dasharray:none;stroke-opacity:1"
       d="M 41.658495,168.25645 82.101517,95.993414 81.722179,68.192017 H 28.683944"
       id="path5356" /><path
       style="fill:none;stroke:#000000;stroke-width:3;stroke-linecap:butt;stroke-linejoin:miter;stroke-miterlimit:4;stroke-dasharray:none;stroke-opacity:1"
       d="M 30.027809,157.70949 81.60819,68.256181"
       id="path5356-3"
       sodipodi:nodetypes="cc" /></g><path
     style="fill:none;stroke:#000000;stroke-width:3;stroke-linecap:butt;stroke-linejoin:miter;stroke-miterlimit:4;stroke-dasharray:none;stroke-opacity:1"
     d="M 181.70733,168.25605 141.2643,95.993015 141.64364,68.191618 h 53.03824"
     id="path5356-9" /><path
     style="fill:none;stroke:#000000;stroke-width:3;stroke-linecap:butt;stroke-linejoin:miter;stroke-miterlimit:4;stroke-dasharray:none;stroke-opacity:1"
     d="M 193.33801,157.70909 141.75763,68.255782"
     id="path5356-3-7"
     sodipodi:nodetypes="cc" /><path
     d="m 119.56611,117.07636 c -1.10587,0 -1.50944,-0.16526 -2.39384,-0.52773 -1.20151,-0.49259 -2.84753,-1.16698 -5.87664,-1.16698 -3.02963,0 -4.67564,0.67439 -5.87767,1.16698 -0.88439,0.36247 -1.28797,0.52773 -2.39433,0.52773 -1.10691,0 -1.51099,-0.16526 -2.39537,-0.52802 -1.202041,-0.4923 -5.877679,-1.16698 -5.877679,-1.16698 v 3.37954 c 0,0 1.509958,0.16525 2.394348,0.52773 1.20202,0.4926 2.84804,1.16699 5.878701,1.16699 3.02961,0 4.67614,-0.67439 5.87766,-1.16699 0.88438,-0.36247 1.28796,-0.52773 2.39434,-0.52773 1.10535,0 1.50892,0.16525 2.3928,0.52773 1.20203,0.49229 2.84754,1.16699 5.87768,1.16699 3.02962,0 4.67564,-0.67439 5.87716,-1.16699 0.88439,-0.36247 2.39434,-0.52773 2.39434,-0.52773 v -3.37983 c 0,0 -4.67615,0.67439 -5.87767,1.16698 -0.8849,0.36305 -1.28796,0.52831 -2.39383,0.52831 z"
     id="path113-8-8"
     style="stroke-width:0.385433"
     sodipodi:nodetypes="scscsccccscscsccccs" /><path
     d="m 92.268498,140.65979 c -1.10587,0 -1.50944,-0.16526 -2.39384,-0.52773 -1.20151,-0.49259 -2.84753,-1.16698 -5.87664,-1.16698 -3.02963,0 -4.67564,0.67439 -5.87767,1.16698 -0.88439,0.36247 -1.28797,0.52773 -2.39433,0.52773 -1.10691,0 -1.51099,-0.16526 -2.39537,-0.52802 -1.20204,-0.4923 -5.87768,-1.16698 -5.87768,-1.16698 v 3.37954 c 0,0 1.50996,0.16525 2.39435,0.52773 1.20202,0.4926 2.84804,1.16699 5.8787,1.16699 3.02961,0 4.67614,-0.67439 5.87766,-1.16699 0.88438,-0.36247 1.28796,-0.52773 2.39434,-0.52773 1.10535,0 1.50892,0.16525 2.3928,0.52773 1.20203,0.49229 2.84754,1.16699 5.87768,1.16699 3.02962,0 4.67564,-0.67439 5.87716,-1.16699 0.88439,-0.36247 2.394342,-0.52773 2.394342,-0.52773 v -3.37983 c 0,0 -4.676152,0.67439 -5.877672,1.16698 -0.8849,0.36305 -1.28796,0.52831 -2.39383,0.52831 z"
     id="path113-8-8-5"
     style="stroke-width:0.385433"
     sodipodi:nodetypes="scscsccccscscsccccs" /><path
     d="m 144.28171,153.58232 c -1.10587,0 -1.50944,-0.16526 -2.39384,-0.52773 -1.20151,-0.49259 -2.84753,-1.16698 -5.87664,-1.16698 -3.02963,0 -4.67564,0.67439 -5.87767,1.16698 -0.88439,0.36247 -1.28797,0.52773 -2.39433,0.52773 -1.10691,0 -1.51099,-0.16526 -2.39537,-0.52802 -1.20204,-0.4923 -5.87768,-1.16698 -5.87768,-1.16698 v 3.37954 c 0,0 1.50996,0.16525 2.39435,0.52773 1.20202,0.4926 2.84804,1.16699 5.8787,1.16699 3.02961,0 4.67614,-0.67439 5.87766,-1.16699 0.88438,-0.36247 1.28796,-0.52773 2.39434,-0.52773 1.10535,0 1.50892,0.16525 2.3928,0.52773 1.20203,0.49229 2.84754,1.16699 5.87768,1.16699 3.02962,0 4.67564,-0.67439 5.87716,-1.16699 0.88439,-0.36247 2.39434,-0.52773 2.39434,-0.52773 v -3.37983 c 0,0 -4.67615,0.67439 -5.87767,1.16698 -0.8849,0.36305 -1.28796,0.52831 -2.39383,0.52831 z"
     id="path113-8-8-0"
     style="stroke-width:0.385433"
     sodipodi:nodetypes="scscsccccscscsccccs" /><path
     d="m 87.93118,171.60951 c 3.170425,0 4.327417,0.22839 6.862901,0.72931 3.44462,0.68076 8.163599,1.61276 16.847769,1.61276 8.68565,0 13.4046,-0.932 16.8507,-1.61276 2.53545,-0.50092 3.69247,-0.72931 6.86433,-0.72931 3.1734,0 4.33184,0.22839 6.86727,0.72971 3.44615,0.68036 8.1651,1.61276 16.85074,1.61276 8.68713,0 13.40753,-0.932 16.85365,-1.61276 2.53547,-0.50092 3.69394,-0.72931 6.86581,-0.72931 v -4.67087 c -8.68562,0 -13.40607,0.932 -16.85216,1.61276 -2.53691,0.50132 -3.69395,0.72971 -6.8673,0.72971 -3.17187,0 -4.32892,-0.22837 -6.86433,-0.72931 -3.44611,-0.68076 -8.16509,-1.61276 -16.85368,-1.61276 -8.68563,0 -13.40606,0.932 -16.8507,1.61276 -2.53544,0.50092 -3.69245,0.72931 -6.86433,0.72931 -3.16895,0 -4.32595,-0.22837 -6.85995,-0.72931 -3.4461,-0.68034 -8.163598,-1.61276 -16.85072,-1.61276 -8.685647,0 -13.404611,0.932 -16.849246,1.61276 -2.535459,0.50092 -3.692463,0.72931 -6.864347,0.72931 -3.17188,0 -4.328894,-0.22837 -6.864343,-0.72931 -3.446101,-0.68076 -8.163602,-1.61276 -16.849244,-1.61276 v 4.67088 c 3.170411,0 4.327418,0.22839 6.862874,0.7293 3.446099,0.68076 8.165063,1.61276 16.850713,1.61276 8.685641,0 13.406075,-0.932 16.850713,-1.61276 2.536913,-0.50172 3.692454,-0.73011 6.86288,-0.73011 z"
     id="path113-8-6"
     style="stroke-width:0.767196" /></g></svg>
