<?xml version="1.0" encoding="UTF-8" standalone="no"?>
<svg
   xmlns:dc="http://purl.org/dc/elements/1.1/"
   xmlns:cc="http://creativecommons.org/ns#"
   xmlns:rdf="http://www.w3.org/1999/02/22-rdf-syntax-ns#"
   xmlns:svg="http://www.w3.org/2000/svg"
   xmlns="http://www.w3.org/2000/svg"
   xmlns:sodipodi="http://sodipodi.sourceforge.net/DTD/sodipodi-0.dtd"
   xmlns:inkscape="http://www.inkscape.org/namespaces/inkscape"
   version="1.1"
   id="Capa_1"
   x="0px"
   y="0px"
   viewBox="0 0 395 395"
   style="enable-background:new 0 0 395 395;"
   xml:space="preserve"
   sodipodi:docname="natural.svg"
   inkscape:version="1.0.2 (e86c8708, 2021-01-15)"
   inkscape:export-filename="/Users/nickmazany-wright/Desktop/Development projects/barrier_type_test/data/lateral.png"
   inkscape:export-xdpi="96"
   inkscape:export-ydpi="96"><metadata
   id="metadata3502"><rdf:RDF><cc:Work
       rdf:about=""><dc:format>image/svg+xml</dc:format><dc:type
         rdf:resource="http://purl.org/dc/dcmitype/StillImage" /><dc:title></dc:title></cc:Work></rdf:RDF></metadata><defs
   id="defs3500">
	
	
	
	
	
	
	
	
</defs><sodipodi:namedview
   pagecolor="#ffffff"
   bordercolor="#666666"
   borderopacity="1"
   objecttolerance="10"
   gridtolerance="10"
   guidetolerance="10"
   inkscape:pageopacity="0"
   inkscape:pageshadow="2"
   inkscape:window-width="1215"
   inkscape:window-height="740"
   id="namedview3498"
   showgrid="false"
   inkscape:zoom="1.1662912"
   inkscape:cx="299.53283"
   inkscape:cy="217.22063"
   inkscape:window-x="0"
   inkscape:window-y="25"
   inkscape:window-maximized="0"
   inkscape:current-layer="Capa_1" />
<path
   d="M 313.001,0 H 81.999 C 36.785,0 0,36.784 0,81.998 V 312.991 C 0,358.211 36.785,395 81.999,395 H 313.001 C 358.216,395 395,358.211 395,312.991 V 81.998 C 395,36.784 358.216,0 313.001,0 Z M 380,312.991 C 380,349.94 349.945,380 313.001,380 H 81.999 C 45.056,380 15,349.94 15,312.991 V 81.998 C 15,45.056 45.056,15 81.999,15 H 313.001 C 349.945,15 380,45.056 380,81.998 Z"
   id="path3449" />
<g
   id="g3467">
</g>
<g
   id="g3469">
</g>
<g
   id="g3471">
</g>
<g
   id="g3473">
</g>
<g
   id="g3475">
</g>
<g
   id="g3477">
</g>
<g
   id="g3479">
</g>
<g
   id="g3481">
</g>
<g
   id="g3483">
</g>
<g
   id="g3485">
</g>
<g
   id="g3487">
</g>
<g
   id="g3489">
</g>
<g
   id="g3491">
</g>
<g
   id="g3493">
</g>
<g
   id="g3495">
</g>
<g
   id="g6288"><g
     id="g5652"
     transform="matrix(0.54220991,0,0,0.54220991,57.836608,59.012789)"><g
       id="g5650"><path
         d="m 507.572,494.731 -54.041,-50.774 c -1.572,-1.477 -3.58,-2.405 -5.724,-2.646 l -68.755,-7.727 -50.481,-51.052 c -1.046,-1.058 -2.315,-1.869 -3.715,-2.373 l -63.64,-22.947 -20.21,-57.266 c -0.657,-1.862 -1.852,-3.487 -3.432,-4.671 l -51.23,-38.371 -5.097,-44.833 c -0.241,-2.12 -1.154,-4.105 -2.604,-5.668 l -29.018,-31.256 c -1.179,-1.27 -2.666,-2.211 -4.318,-2.731 L 99.36,157.938 108.853,112.18 c 0.516,-2.49 0.064,-5.084 -1.267,-7.252 L 83.841,66.22 C 83.394,65.493 82.857,64.826 82.242,64.235 L 18.182,2.782 C 15.294,0.01 11.03,-0.769 7.35,0.8 3.668,2.37 1.279,5.986 1.279,9.989 v 492.022 c 0,5.517 4.472,9.989 9.989,9.989 h 489.465 c 4.098,0 7.779,-2.501 9.287,-6.31 1.508,-3.809 0.538,-8.153 -2.448,-10.959 z M 21.257,492.022 V 33.415 l 46.228,44.346 21.001,34.237 -10.523,50.724 c -1.042,5.021 1.888,10.015 6.779,11.556 l 52.04,16.397 24.986,26.913 5.213,45.854 c 0.311,2.733 1.735,5.218 3.937,6.867 l 52.257,39.14 20.778,58.877 c 0.998,2.827 3.211,5.055 6.031,6.072 l 65.971,23.787 51.373,51.955 c 1.605,1.623 3.719,2.648 5.987,2.903 l 68.959,7.75 33.239,31.23 H 21.257 Z"
         id="path5648" /></g></g><g
     id="g5658"
     transform="matrix(0.54220991,0,0,0.54220991,57.836608,59.012789)"><g
       id="g5656"><path
         d="M 296.313,79.641 270.142,31.713 c -1.888,-3.455 -5.626,-5.484 -9.555,-5.17 l -50.005,3.956 c -3.278,0.26 -6.219,2.116 -7.863,4.965 l -21.357,37 c -1.56,2.702 -1.768,5.977 -0.561,8.855 l 21.357,50.954 c 1.575,3.757 5.239,6.128 9.208,6.128 0.547,0 1.1,-0.045 1.654,-0.138 l 56.219,-9.41 c 2.941,-0.493 5.51,-2.275 7.001,-4.859 l 19.958,-34.572 c 1.741,-3.017 1.785,-6.723 0.115,-9.781 z m -35.021,30.285 -43.769,7.326 L 201.139,78.161 217.394,50 255.709,46.969 276.09,84.292 Z"
         id="path5654" /></g></g><g
     id="g5664"
     transform="matrix(0.54220991,0,0,0.54220991,57.836608,59.012789)"><g
       id="g5662"><path
         d="m 377.66,249.477 -13.026,-28.649 c -1.441,-3.17 -4.429,-5.36 -7.886,-5.782 l -42.743,-5.204 c -3.91,-0.477 -7.736,1.391 -9.767,4.767 l -20.388,33.893 c -1.694,2.816 -1.894,6.286 -0.535,9.279 l 13.926,30.667 c 1.291,2.842 3.835,4.918 6.878,5.61 l 42.484,9.669 c 0.741,0.169 1.484,0.25 2.22,0.25 3.749,0 7.267,-2.12 8.97,-5.601 L 377.541,258 c 1.311,-2.679 1.355,-5.806 0.119,-8.523 z m -34.338,33.016 -29.939,-6.815 -9.705,-21.376 14.342,-23.844 30.749,3.744 8.754,19.255 z"
         id="path5660" /></g></g><g
     id="g5670"
     transform="matrix(0.54220991,0,0,0.54220991,57.836608,59.012789)"><g
       id="g5668"><path
         d="M 430.552,116.009 417.057,97.22 c -2.032,-2.83 -5.388,-4.398 -8.864,-4.133 l -31.555,2.377 c -3.927,0.296 -7.313,2.872 -8.648,6.576 l -9.849,27.35 c -1.114,3.094 -0.634,6.538 1.284,9.21 l 14.434,20.108 c 1.82,2.534 4.719,4.074 7.838,4.16 l 32.014,0.889 c 0.094,0.002 0.187,0.004 0.28,0.004 4.519,0 8.492,-3.043 9.654,-7.434 l 8.451,-31.935 c 0.763,-2.885 0.196,-5.959 -1.544,-8.383 z m -24.197,27.558 -19.156,-0.531 -8.483,-11.819 5.877,-16.317 19.509,-1.469 7.475,10.408 z"
         id="path5666" /></g></g><g
     id="g5676"
     transform="matrix(0.54220991,0,0,0.54220991,57.836608,59.012789)"><g
       id="g5674"><path
         d="m 489.501,359.451 -6.952,-30.876 c -0.865,-3.842 -3.908,-6.818 -7.768,-7.597 l -28.489,-5.754 c -3.222,-0.649 -6.561,0.327 -8.925,2.614 l -17.791,17.221 c -2.242,2.17 -3.34,5.261 -2.972,8.358 l 3.786,31.794 c 0.547,4.604 4.191,8.225 8.798,8.745 l 32.824,3.706 c 0.375,0.042 0.749,0.063 1.122,0.063 2.578,0 5.074,-0.999 6.947,-2.812 l 16.622,-16.092 c 2.503,-2.422 3.563,-5.973 2.798,-9.37 z m -29.929,7.831 -20.279,-2.289 -2.266,-19.022 10.46,-10.124 16.993,3.432 4.298,19.09 z"
         id="path5672" /></g></g><g
     id="g5682"
     transform="matrix(0.54220991,0,0,0.54220991,57.836608,59.012789)"><g
       id="g5680"><path
         d="m 414.091,295.186 c -12.855,0 -12.877,19.978 0,19.978 12.855,0 12.876,-19.978 0,-19.978 z"
         id="path5678" /></g></g><g
     id="g5688"
     transform="matrix(0.54220991,0,0,0.54220991,57.836608,59.012789)"><g
       id="g5686"><path
         d="m 258.748,205.643 c -12.855,0 -12.876,19.978 0,19.978 12.855,0 12.876,-19.978 0,-19.978 z"
         id="path5684" /></g></g><g
     id="g5694"
     transform="matrix(0.54220991,0,0,0.54220991,57.836608,59.012789)"><g
       id="g5692"><path
         d="m 225.031,178.451 c -12.855,0 -12.877,19.978 0,19.978 12.855,0 12.876,-19.978 0,-19.978 z"
         id="path5690" /></g></g><g
     id="g5700"
     transform="matrix(0.54220991,0,0,0.54220991,57.836608,59.012789)"><g
       id="g5698"><path
         d="m 143.124,38.498 c -12.855,0 -12.876,19.978 0,19.978 12.855,0 12.876,-19.978 0,-19.978 z"
         id="path5696" /></g></g><g
     id="g5706"
     transform="matrix(0.54220991,0,0,0.54220991,57.836608,59.012789)"><g
       id="g5704"><path
         d="m 339.99,51.55 c -12.855,0 -12.876,19.978 0,19.978 12.855,0 12.877,-19.978 0,-19.978 z"
         id="path5702" /></g></g></g><g
   id="g5720"
   transform="matrix(0.54220991,0,0,0.54220991,57.836608,59.012789)" /><g
   id="g5722"
   transform="matrix(0.54220991,0,0,0.54220991,57.836608,59.012789)" /><g
   id="g5724"
   transform="matrix(0.54220991,0,0,0.54220991,57.836608,59.012789)" /><g
   id="g5726"
   transform="matrix(0.54220991,0,0,0.54220991,57.836608,59.012789)" /><g
   id="g5728"
   transform="matrix(0.54220991,0,0,0.54220991,57.836608,59.012789)" /><g
   id="g5730"
   transform="matrix(0.54220991,0,0,0.54220991,57.836608,59.012789)" /><g
   id="g5732"
   transform="matrix(0.54220991,0,0,0.54220991,57.836608,59.012789)" /><g
   id="g5734"
   transform="matrix(0.54220991,0,0,0.54220991,57.836608,59.012789)" /><g
   id="g5736"
   transform="matrix(0.54220991,0,0,0.54220991,57.836608,59.012789)" /><g
   id="g5738"
   transform="matrix(0.54220991,0,0,0.54220991,57.836608,59.012789)" /><g
   id="g5740"
   transform="matrix(0.54220991,0,0,0.54220991,57.836608,59.012789)" /><g
   id="g5742"
   transform="matrix(0.54220991,0,0,0.54220991,57.836608,59.012789)" /><g
   id="g5744"
   transform="matrix(0.54220991,0,0,0.54220991,57.836608,59.012789)" /><g
   id="g5746"
   transform="matrix(0.54220991,0,0,0.54220991,57.836608,59.012789)" /><g
   id="g5748"
   transform="matrix(0.54220991,0,0,0.54220991,57.836608,59.012789)" /></svg>
