<?xml version="1.0" encoding="UTF-8" standalone="no"?>
<svg
   xmlns:dc="http://purl.org/dc/elements/1.1/"
   xmlns:cc="http://creativecommons.org/ns#"
   xmlns:rdf="http://www.w3.org/1999/02/22-rdf-syntax-ns#"
   xmlns:svg="http://www.w3.org/2000/svg"
   xmlns="http://www.w3.org/2000/svg"
   xmlns:sodipodi="http://sodipodi.sourceforge.net/DTD/sodipodi-0.dtd"
   xmlns:inkscape="http://www.inkscape.org/namespaces/inkscape"
   version="1.1"
   id="Capa_1"
   x="0px"
   y="0px"
   viewBox="0 0 395 395"
   style="enable-background:new 0 0 395 395;"
   xml:space="preserve"
   sodipodi:docname="rail_stream.svg"
   inkscape:version="1.0.2 (e86c8708, 2021-01-15)"
   inkscape:export-filename="/Users/nickmazany-wright/Desktop/Development projects/barrier_type_test/data/rail_stream.png"
   inkscape:export-xdpi="96"
   inkscape:export-ydpi="96"><metadata
   id="metadata3502"><rdf:RDF><cc:Work
       rdf:about=""><dc:format>image/svg+xml</dc:format><dc:type
         rdf:resource="http://purl.org/dc/dcmitype/StillImage" /><dc:title></dc:title></cc:Work></rdf:RDF></metadata><defs
   id="defs3500">
	
	
	
	
	
	
	
	
</defs><sodipodi:namedview
   pagecolor="#ffffff"
   bordercolor="#666666"
   borderopacity="1"
   objecttolerance="10"
   gridtolerance="10"
   guidetolerance="10"
   inkscape:pageopacity="0"
   inkscape:pageshadow="2"
   inkscape:window-width="1215"
   inkscape:window-height="740"
   id="namedview3498"
   showgrid="false"
   inkscape:zoom="1.1662912"
   inkscape:cx="214.64838"
   inkscape:cy="197.5"
   inkscape:window-x="0"
   inkscape:window-y="25"
   inkscape:window-maximized="0"
   inkscape:current-layer="Capa_1" />
<path
   d="M 313.001,0 H 81.999 C 36.785,0 0,36.784 0,81.998 V 312.991 C 0,358.211 36.785,395 81.999,395 H 313.001 C 358.216,395 395,358.211 395,312.991 V 81.998 C 395,36.784 358.216,0 313.001,0 Z M 380,312.991 C 380,349.94 349.945,380 313.001,380 H 81.999 C 45.056,380 15,349.94 15,312.991 V 81.998 C 15,45.056 45.056,15 81.999,15 H 313.001 C 349.945,15 380,45.056 380,81.998 Z"
   id="path3449" />
<g
   id="g3467">
</g>
<g
   id="g3469">
</g>
<g
   id="g3471">
</g>
<g
   id="g3473">
</g>
<g
   id="g3475">
</g>
<g
   id="g3477">
</g>
<g
   id="g3479">
</g>
<g
   id="g3481">
</g>
<g
   id="g3483">
</g>
<g
   id="g3485">
</g>
<g
   id="g3487">
</g>
<g
   id="g3489">
</g>
<g
   id="g3491">
</g>
<g
   id="g3493">
</g>
<g
   id="g3495">
</g>
<path
   d="m 315.64801,253.87123 -10.31067,-24.42 h 19.07467 l 9.15733,24.42 z m -183.96266,0 6.784,-24.42 h 115.61466 l 6.78267,24.42 z m -71.90747,0 12.20987,-24.42 h 15.22866 l -10.31,24.42 z m 23.7948,-58.57333 9.77907,-21.28133 h 17.27093 l -8.98533,21.28133 z m 30.046,-58.57333 6.656,-16.05467 h 12.87333 l -6.77866,16.05467 z m 110.248,-16.05467 4.46,16.05467 h -64.1 l 4.46,-16.05467 z m 50.70533,0 4.99067,16.05467 h -13.37734 l -6.77866,-16.05467 z m 27.78933,53.34667 7.33333,21.28133 h -18.77866 l -8.98533,-21.28133 z M 145.44268,204.3499 h 101.668 l 4.45866,16.05067 H 140.98268 Z m 90.72933,-39.384 h -79.78933 l 5.33066,-19.18933 h 69.12667 z m -82.304,9.05067 h 84.81733 l 5.912,21.28133 H 147.95601 Z M 73.92308,284.20323 149.59735,104.98057 h 14.05333 l -49.784,179.22266 z m 204.76493,0 -49.784,-179.22266 h 14.05333 l 75.67333,179.22266 z m 53.096,-60.86533 c -0.664,-1.76667 -2.352,-2.93733 -4.23734,-2.93733 h -26.03066 l -6.77734,-16.05067 h 21.30267 c 1.46133,0 2.83467,-0.708 3.68533,-1.89867 0.84934,-1.18933 1.07067,-2.71866 0.59334,-4.10133 l -10.45467,-30.332 c -0.62667,-1.82667 -2.348,-3.052 -4.27733,-3.052 h -27.47867 l -8.10266,-19.18933 h 15.70266 c 1.43734,0 2.78933,-0.684 3.644,-1.84267 0.852,-1.15733 1.10533,-2.65333 0.67733,-4.02667 l -7.80399,-25.10533 c -0.58934,-1.892 -2.34,-3.18267 -4.32267,-3.18267 h -22.31867 l -5.456,-12.922662 c -0.708,-1.676 -2.352,-2.766666 -4.16933,-2.766666 h -23.01067 c -1.41466,0 -2.74666,0.659999 -3.604,1.787999 -0.85466,1.126667 -1.13466,2.587999 -0.75733,3.949339 l 2.76533,9.95199 h -50.152 l 2.76534,-9.95199 c 0.376,-1.36134 0.0973,-2.822672 -0.75734,-3.949339 -0.85733,-1.128 -2.18933,-1.787999 -3.604,-1.787999 h -23.01066 c -1.81733,0 -3.46133,1.090666 -4.16933,2.766666 l -5.456,12.922662 h -19.71734 c -1.82933,0 -3.48,1.10134 -4.18133,2.79334 l -10.40533,25.10533 c -0.57734,1.39733 -0.42134,2.99067 0.41733,4.24533 0.84,1.25867 2.252,2.01334 3.76267,2.01334 h 15.70266 l -8.10266,19.18933 H 90.44921 c -1.76773,0 -3.37346,1.028 -4.11306,2.636 l -13.93587,30.33333 c -0.6428,1.4 -0.5308,3.032 0.3036,4.33067 0.83067,1.3 2.26827,2.084 3.80933,2.084 h 21.30267 l -6.7776,16.05067 H 69.19135 c -1.71454,0 -3.28174,0.96933 -4.04787,2.50133 l -16.73547,33.47067 c -0.70106,1.40266 -0.6244,3.07066 0.19747,4.40533 0.82493,1.33067 2.28333,2.144 3.85093,2.144 h 20.62814 l -10.15414,24.048 c -0.58906,1.39733 -0.4416,2.99733 0.398,4.26133 0.83947,1.264 2.25414,2.024 3.77134,2.024 h 50.2056 c 2.03333,0 3.816,-1.356 4.36,-3.31467 l 7.50533,-27.01866 h 134.21066 l 7.504,27.01866 c 0.54534,1.95867 2.328,3.31467 4.36134,3.31467 h 50.20799 0.0587 c 2.50133,0 4.52667,-2.028 4.52667,-4.52667 0,-0.87733 -0.25067,-1.69866 -0.684,-2.392 l -9.88667,-23.41466 h 20.62933 c 1.484,0 2.87467,-0.72667 3.71734,-1.94667 0.84666,-1.22 1.04,-2.77866 0.51866,-4.16666 L 331.78404,223.3379"
   style="fill:#000000;fill-opacity:1;fill-rule:nonzero;stroke:none;stroke-width:0.133333"
   id="path3783" /></svg>
